<?xml version="1.0" encoding="utf-8"?>
<!-- Generator: Adobe Illustrator 23.0.1, SVG Export Plug-In . SVG Version: 6.00 Build 0)  -->
<svg version="1.1" id="Layer_1" xmlns="http://www.w3.org/2000/svg" xmlns:xlink="http://www.w3.org/1999/xlink" x="0px" y="0px"
	 viewBox="0 0 1000 1000" style="enable-background:new 0 0 1000 1000;" xml:space="preserve">
<style type="text/css">
	.st0{fill:#B11F24;}
	.st1{fill:#BBBDBF;}
	.st2{fill:#231F20;}
	.st3{fill:#D81F26;}
	.st4{fill:#25A9E0;}
	.st5{fill:#E41E26;}
	.st6{fill:#1B75BB;}
	.st7{fill:#2B388F;}
	.st8{fill:#2787F5;}
	.st9{fill:#020202;}
	.st10{fill-rule:evenodd;clip-rule:evenodd;fill:#BBBDBF;}
	.st11{fill-rule:evenodd;clip-rule:evenodd;fill:#231F20;}
	.st12{fill-rule:evenodd;clip-rule:evenodd;fill:#D81F26;}
	.st13{fill-rule:evenodd;clip-rule:evenodd;fill:#25A9E0;}
	.st14{fill-rule:evenodd;clip-rule:evenodd;fill:#E41E26;}
	.st15{fill-rule:evenodd;clip-rule:evenodd;fill:#B11F24;}
	.st16{fill:#58595B;}
	.st17{fill:#E6E7E8;}
	.st18{fill:#FFFFFF;}
</style>
<ellipse transform="matrix(0.7071 -0.7071 0.7071 0.7071 -207.1068 500.0001)" class="st2" cx="500" cy="500" rx="377.3" ry="377.3"/>
<path class="st18" d="M315.3,560c-7.7,1.3-15.5,1.7-23.5,2.8l-24.6-72.1v75.2c-7.7,0.8-14.7,1.9-21.9,3V431.2h20.4l28,78.1v-78.1
	h21.6L315.3,560L315.3,560z M357.7,481.6c8.3,0,21.1-0.4,28.8-0.4v21.5c-9.5,0-20.7,0-28.8,0.4v32c12.6-0.8,25.3-1.9,38-2.3v20.7
	l-59.6,4.7v-127h59.6v21.5h-38C357.7,452.7,357.7,481.6,357.7,481.6z M475.7,452.7h-22.3v98.9c-7.3,0-14.5,0-21.5,0.3v-99.2h-22.3
	v-21.5h66.1C475.7,431.2,475.7,452.7,475.7,452.7z M510.7,480.1h29.4v21.5h-29.4v48.8h-21.1V431.2h60.1v21.5h-39
	C510.7,452.7,510.7,480.1,510.7,480.1z M584.6,531.6c12.2,0.3,24.6,1.2,36.6,1.9v21.2c-19.2-1.2-38.4-2.4-58.1-2.8V431.2h21.5V531.6
	L584.6,531.6z M639.3,556.2c6.9,0.4,14.1,0.8,21.1,1.6V431.2h-21.1V556.2z M754.7,431.2l-27.3,65.5l27.3,72.2
	c-8.1-1.1-16.1-2.6-24.2-3.9L715,525.1l-15.7,36.6c-7.8-1.3-15.3-1.7-23.1-2.8l27.7-63.1l-25-64.7H702l14.1,36.2l15.1-36.2
	L754.7,431.2L754.7,431.2z"/>
</svg>
